<svg width="40" height="40" viewBox="0 0 40 40" fill="none" xmlns="http://www.w3.org/2000/svg">
<circle cx="20" cy="20" r="18.5" transform="matrix(1 0 0 -1 0 40)" stroke="#E6E6E6" stroke-width="3" stroke-dasharray="4 4"/>
<mask id="path-2-inside-1_465_4289" fill="white">
<path d="M20 40C16.8438 40 13.7324 39.253 10.9202 37.8201C8.10799 36.3872 5.67483 34.3091 3.81966 31.7557C1.96449 29.2023 0.739972 26.246 0.246232 23.1287C-0.247507 20.0113 0.00354717 16.8214 0.978869 13.8197C1.95419 10.8179 3.62609 8.08964 5.85787 5.85786C8.08964 3.62609 10.8179 1.95419 13.8197 0.97887C16.8214 0.00354823 20.0113 -0.247506 23.1287 0.246234C26.246 0.739975 29.2023 1.96449 31.7557 3.81966L20 20L20 40Z"/>
</mask>
<path d="M20 40C16.8438 40 13.7324 39.253 10.9202 37.8201C8.10799 36.3872 5.67483 34.3091 3.81966 31.7557C1.96449 29.2023 0.739972 26.246 0.246232 23.1287C-0.247507 20.0113 0.00354717 16.8214 0.978869 13.8197C1.95419 10.8179 3.62609 8.08964 5.85787 5.85786C8.08964 3.62609 10.8179 1.95419 13.8197 0.97887C16.8214 0.00354823 20.0113 -0.247506 23.1287 0.246234C26.246 0.739975 29.2023 1.96449 31.7557 3.81966L20 20L20 40Z" stroke="url(#paint0_linear_465_4289)" stroke-width="6" mask="url(#path-2-inside-1_465_4289)"/>
<circle cx="17" cy="17" r="17" transform="matrix(1 0 0 -1 3 37)" fill="#FAFAFA"/>
<path d="M35.1797 8.96094L38.5312 8.46875C38.8125 8.42188 39.0469 8.23438 39.1406 7.95312C39.2344 7.69531 39.1641 7.39062 38.9531 7.20312L36.5156 4.78906L37.1016 1.36719C37.1484 1.08594 37.0312 0.804688 36.7969 0.640625C36.5625 0.453125 36.2578 0.453125 36 0.570312L33 2.1875L29.9766 0.570312C29.7422 0.453125 29.4141 0.453125 29.2031 0.640625C28.9688 0.804688 28.8516 1.08594 28.8984 1.36719L29.4609 4.78906L27.0234 7.20312C26.8125 7.39062 26.7422 7.69531 26.8359 7.95312C26.9297 8.23438 27.1641 8.42188 27.4453 8.46875L30.8203 8.96094L32.3203 12.0781C32.4375 12.3359 32.6953 12.5 33 12.5C33.2812 12.5 33.5391 12.3359 33.6562 12.0781L35.1797 8.96094Z" fill="#FF991F"/>
<defs>
<linearGradient id="paint0_linear_465_4289" x1="30.5" y1="5" x2="20" y2="40" gradientUnits="userSpaceOnUse">
<stop stop-color="#FFC887"/>
<stop offset="1" stop-color="#FFF1E0"/>
</linearGradient>
</defs>
</svg>
